# xmcd
#
# Track frame offsets: 
#        150
#        11080
#        22667
#        35367
#        49640
#
# Disc length: 803 seconds
#
# Revision: 0
# Processed by: cddbd v1.5.2PL0 Copyright (c) Steve Scherf et al.
# Submitted via: ExactAudioCopy v1.0b3
#
DISCID=2c032105
DTITLE=SBD - Sätt på mig
DYEAR=1993
DGENRE=Punk
TTITLE0=Jag vill in i dig
TTITLE1=Är du vaken (för staken)
TTITLE2=På smultronjakt
TTITLE3=Min debut
TTITLE4=Hon var en han
EXTD=
EXTT0=
EXTT1=
EXTT2=
EXTT3=
EXTT4=
PLAYORDER=
